<svg width="52" height="52" viewBox="0 0 52 52" fill="none" xmlns="http://www.w3.org/2000/svg">
<path d="M45.5 14.0835C45.5 18.2652 42.0983 21.6668 37.9167 21.6668C33.735 21.6668 30.3333 18.2652 30.3333 14.0835C30.3333 9.90184 33.735 6.50017 37.9167 6.50017C42.0983 6.50017 45.5 9.90184 45.5 14.0835ZM41.1667 25.5452C40.0833 25.8268 39 26.0002 37.9167 26.0002C34.7579 25.9944 31.7302 24.7371 29.4966 22.5035C27.2631 20.27 26.0057 17.2422 26 14.0835C26 10.8985 27.2567 8.01684 29.25 5.87184C28.8568 5.38985 28.361 5.00164 27.7988 4.73552C27.2366 4.4694 26.622 4.33206 26 4.33351C23.6167 4.33351 21.6667 6.28351 21.6667 8.66684V9.29517C15.2317 11.2018 10.8333 17.1168 10.8333 23.8335V36.8335L6.5 41.1668V43.3335H45.5V41.1668L41.1667 36.8335V25.5452ZM26 49.8335C28.405 49.8335 30.3333 47.9052 30.3333 45.5002H21.6667C21.6667 46.6494 22.1232 47.7516 22.9359 48.5643C23.7485 49.377 24.8507 49.8335 26 49.8335Z" fill="#130160"/>
</svg>
