<svg width="53" height="52" viewBox="0 0 53 52" fill="none" xmlns="http://www.w3.org/2000/svg">
<path d="M8.8335 19.5C8.8335 13.3717 8.8335 10.3076 10.7739 8.40381C12.7143 6.5 15.8374 6.5 22.0835 6.5H30.9168C37.1629 6.5 40.286 6.5 42.2264 8.40381C44.1668 10.3076 44.1668 13.3717 44.1668 19.5V34.2932C44.1668 40.1069 44.1668 43.0138 42.3023 43.9029C40.4379 44.792 38.1082 42.9961 33.4488 39.4042L31.9576 38.2547C29.3377 36.235 28.0277 35.2252 26.5002 35.2252C24.9726 35.2252 23.6626 36.235 21.0427 38.2547L19.5516 39.4042C14.8922 42.9961 12.5625 44.792 10.698 43.9029C8.8335 43.0138 8.8335 40.1069 8.8335 34.2932V19.5Z" fill="#130160" stroke="#130160" stroke-width="2"/>
</svg>
