<svg width="52" height="52" viewBox="0 0 52 52" fill="none" xmlns="http://www.w3.org/2000/svg">
<path d="M27.5319 4.96835L47.0319 24.4684C48.3969 25.8334 47.4305 28.1669 45.5 28.1669H43.3334V41.1669C43.3334 42.8908 42.6486 44.5441 41.4296 45.7631C40.2106 46.982 38.5573 47.6669 36.8334 47.6669H34.6667V32.5002C34.6668 30.8422 34.0333 29.2469 32.8959 28.0406C31.7585 26.8343 30.2031 26.1083 28.548 26.011L28.1667 26.0002H23.8334C22.1095 26.0002 20.4562 26.685 19.2372 27.904C18.0182 29.123 17.3334 30.7763 17.3334 32.5002V47.6669H15.1667C13.4428 47.6669 11.7895 46.982 10.5705 45.7631C9.35153 44.5441 8.66671 42.8908 8.66671 41.1669V28.1669H6.50004C4.57171 28.1669 3.60321 25.8334 4.96821 24.4684L24.4682 4.96835C24.8745 4.56217 25.4255 4.33398 26 4.33398C26.5746 4.33398 27.1256 4.56217 27.5319 4.96835ZM28.1667 30.3335C28.7413 30.3335 29.2924 30.5618 29.6988 30.9681C30.1051 31.3745 30.3334 31.9256 30.3334 32.5002V47.6669H21.6667V32.5002C21.6668 31.9695 21.8616 31.4573 22.2143 31.0607C22.5669 30.6641 23.0528 30.4108 23.5799 30.3487L23.8334 30.3335H28.1667Z" fill="#130160"/>
</svg>
