<svg width="16" height="16" viewBox="0 0 16 16" fill="none" xmlns="http://www.w3.org/2000/svg">
<path d="M14.5 0.375058H1.5C1.20504 0.372056 0.920934 0.486188 0.710024 0.692411C0.499114 0.898635 0.378626 1.1801 0.375 1.47506V14.5276C0.379282 14.8221 0.500058 15.1029 0.710896 15.3086C0.921735 15.5143 1.20547 15.6281 1.5 15.6251H14.5C14.795 15.6274 15.0789 15.5129 15.2897 15.3065C15.5005 15.1002 15.621 14.8188 15.625 14.5238V1.47131C15.6197 1.17722 15.4986 0.897091 15.288 0.691815C15.0773 0.486538 14.7941 0.372705 14.5 0.375058Z" fill="#0076B2"/>
<path d="M2.63215 6.09131H4.8959V13.3751H2.63215V6.09131ZM3.76465 2.46631C4.02429 2.46631 4.2781 2.54332 4.49396 2.68759C4.70983 2.83187 4.87806 3.03692 4.97736 3.27683C5.07666 3.51673 5.10258 3.78069 5.05184 4.03532C5.00109 4.28996 4.87596 4.52382 4.69228 4.70733C4.5086 4.89083 4.27462 5.01574 4.01994 5.06624C3.76526 5.11674 3.50132 5.09057 3.26151 4.99104C3.0217 4.89151 2.81681 4.72309 2.67274 4.50708C2.52867 4.29108 2.4519 4.0372 2.45215 3.77756C2.45248 3.42968 2.59091 3.09616 2.83701 2.85029C3.08312 2.60442 3.41677 2.46631 3.76465 2.46631ZM6.3159 6.09131H8.4859V7.09131H8.5159C8.8184 6.51881 9.5559 5.91506 10.6571 5.91506C12.9496 5.91006 13.3746 7.41881 13.3746 9.37506V13.3751H11.1109V9.83131C11.1109 8.98756 11.0959 7.90131 9.93465 7.90131C8.7734 7.90131 8.5759 8.82131 8.5759 9.77631V13.3751H6.3159V6.09131Z" fill="white"/>
</svg>
