<svg width="52" height="52" viewBox="0 0 52 52" fill="none" xmlns="http://www.w3.org/2000/svg">
<path fill-rule="evenodd" clip-rule="evenodd" d="M26.0002 8.66683C22.9685 8.66627 19.9897 9.46089 17.3611 10.9714C14.7325 12.4818 12.546 14.6553 11.0199 17.2749C9.49379 19.8945 8.68146 22.8685 8.66396 25.9001C8.64647 28.9318 9.42443 31.915 10.9202 34.552C11.9312 33.2381 13.2308 32.1743 14.7185 31.4428C16.2063 30.7113 17.8423 30.3318 19.5002 30.3335H32.5002C34.158 30.3318 35.7941 30.7113 37.2818 31.4428C38.7696 32.1743 40.0692 33.2381 41.0802 34.552C42.5759 31.915 43.3539 28.9318 43.3364 25.9001C43.3189 22.8685 42.5066 19.8945 40.9805 17.2749C39.4544 14.6553 37.2679 12.4818 34.6393 10.9714C32.0107 9.46089 29.0319 8.66627 26.0002 8.66683ZM43.21 39.1648C46.1069 35.3883 47.6738 30.7598 47.6669 26.0002C47.6669 14.0337 37.9667 4.3335 26.0002 4.3335C14.0337 4.3335 4.33352 14.0337 4.33352 26.0002C4.32637 30.7599 5.89332 35.3883 8.79035 39.1648L8.77952 39.2038L9.54869 40.0987C11.5808 42.4744 14.1039 44.3813 16.944 45.6879C19.7842 46.9944 22.8739 47.6696 26.0002 47.6668C30.3927 47.6749 34.6829 46.3406 38.296 43.8427C39.8364 42.7784 41.2331 41.52 42.4517 40.0987L43.2209 39.2038L43.21 39.1648ZM26.0002 13.0002C24.2763 13.0002 22.623 13.685 21.404 14.904C20.185 16.123 19.5002 17.7763 19.5002 19.5002C19.5002 21.2241 20.185 22.8774 21.404 24.0964C22.623 25.3153 24.2763 26.0002 26.0002 26.0002C27.7241 26.0002 29.3774 25.3153 30.5964 24.0964C31.8154 22.8774 32.5002 21.2241 32.5002 19.5002C32.5002 17.7763 31.8154 16.123 30.5964 14.904C29.3774 13.685 27.7241 13.0002 26.0002 13.0002Z" fill="#BDB0B0"/>
</svg>
