<svg width="52" height="52" viewBox="0 0 52 52" fill="none" xmlns="http://www.w3.org/2000/svg">
<path d="M21.6668 39.0002C25.5126 38.9994 29.2476 37.7119 32.277 35.3428L41.8017 44.8675L44.8653 41.8038L35.3407 32.2792C37.711 29.2494 38.9992 25.5136 39.0002 21.6668C39.0002 12.1097 31.224 4.3335 21.6668 4.3335C12.1097 4.3335 4.3335 12.1097 4.3335 21.6668C4.3335 31.224 12.1097 39.0002 21.6668 39.0002ZM21.6668 8.66683C28.8363 8.66683 34.6668 14.4973 34.6668 21.6668C34.6668 28.8363 28.8363 34.6668 21.6668 34.6668C14.4973 34.6668 8.66683 28.8363 8.66683 21.6668C8.66683 14.4973 14.4973 8.66683 21.6668 8.66683Z" fill="#130160"/>
</svg>
