<svg width="24" height="25" viewBox="0 0 24 25" fill="none" xmlns="http://www.w3.org/2000/svg">
<path d="M10 18.7297C11.775 18.7294 13.4988 18.1352 14.897 17.0417L19.293 21.4377L20.707 20.0237L16.311 15.6277C17.405 14.2294 17.9996 12.5052 18 10.7297C18 6.31874 14.411 2.72974 10 2.72974C5.589 2.72974 2 6.31874 2 10.7297C2 15.1407 5.589 18.7297 10 18.7297ZM10 4.72974C13.309 4.72974 16 7.42074 16 10.7297C16 14.0387 13.309 16.7297 10 16.7297C6.691 16.7297 4 14.0387 4 10.7297C4 7.42074 6.691 4.72974 10 4.72974Z" fill="#111812" fill-opacity="0.6"/>
</svg>
