<svg width="24" height="24" viewBox="0 0 24 24" fill="none" xmlns="http://www.w3.org/2000/svg">
<path d="M12 14C13.1046 14 14 13.1046 14 12C14 10.8954 13.1046 10 12 10C10.8954 10 10 10.8954 10 12C10 13.1046 10.8954 14 12 14Z" stroke="#111812" stroke-width="1.5"/>
<path d="M5.39923 5.87991L5.77423 5.22991C5.627 5.14498 5.45529 5.11258 5.28723 5.13801C5.11917 5.16345 4.96474 5.24522 4.84923 5.36991L5.39923 5.87991ZM3.40023 9.34391L2.68323 9.12191C2.63308 9.28436 2.6396 9.45904 2.70174 9.61729C2.76388 9.77555 2.87794 9.90799 3.02523 9.99291L3.40023 9.34391ZM3.39823 14.6549L3.02323 14.0049C2.87591 14.09 2.76191 14.2227 2.69995 14.3812C2.63798 14.5396 2.63173 14.7144 2.68223 14.8769L3.39823 14.6549ZM5.39823 18.1189L4.84823 18.6289C4.96374 18.7536 5.11817 18.8354 5.28623 18.8608C5.45429 18.8863 5.626 18.8538 5.77323 18.7689L5.39823 18.1189ZM9.99823 20.7739H9.24823C9.24823 21.1239 9.49123 21.4269 9.83223 21.5049L9.99823 20.7739ZM13.9992 20.7759L14.1662 21.5079C14.332 21.4701 14.48 21.377 14.5859 21.244C14.6918 21.111 14.7494 20.9459 14.7492 20.7759H13.9992ZM18.6002 18.1199L18.2252 18.7699C18.3725 18.8548 18.5442 18.8873 18.7122 18.8618C18.8803 18.8364 19.0347 18.7546 19.1502 18.6299L18.6002 18.1199ZM20.5982 14.6539L21.3152 14.8759C21.3654 14.7135 21.3589 14.5388 21.2967 14.3805C21.2346 14.2223 21.1205 14.0898 20.9732 14.0049L20.5982 14.6539ZM20.6002 9.34292L20.9752 9.99291C21.1226 9.9078 21.2366 9.77512 21.2985 9.61666C21.3605 9.45821 21.3667 9.28339 21.3162 9.12091L20.6002 9.34292ZM18.6002 5.87791L19.1502 5.36891C19.0347 5.24422 18.8803 5.16245 18.7122 5.13701C18.5442 5.11158 18.3725 5.14398 18.2252 5.22891L18.6002 5.87791ZM14.0002 3.22491H14.7502C14.7502 3.05506 14.6925 2.89024 14.5866 2.75745C14.4807 2.62465 14.3328 2.53174 14.1672 2.49391L14.0002 3.22491ZM10.0002 3.22291L9.83323 2.49091C9.66747 2.52877 9.51949 2.62184 9.41357 2.75484C9.30764 2.88784 9.25004 3.05289 9.25023 3.22291H10.0002ZM4.11723 9.56591C4.4812 8.38283 5.10702 7.29695 5.94823 6.38891L4.84823 5.36891C3.85418 6.44189 3.11454 7.72497 2.68423 9.12291L4.11723 9.56591ZM4.85523 16.1249C4.54637 15.5909 4.29817 15.0241 4.11523 14.4349L2.68323 14.8779C2.89892 15.574 3.19174 16.2439 3.55623 16.8749L4.85523 16.1249ZM5.94923 17.6109C5.53034 17.1579 5.16339 16.6595 4.85523 16.1249L3.55623 16.8749C3.92017 17.5062 4.35353 18.0939 4.84823 18.6289L5.94923 17.6109ZM13.8332 20.0459C12.6266 20.3205 11.3736 20.3199 10.1672 20.0439L9.83323 21.5059C11.2593 21.8324 12.7407 21.8334 14.1672 21.5089L13.8332 20.0459ZM19.8832 14.4339C19.5192 15.617 18.8934 16.7029 18.0522 17.6109L19.1522 18.6309C20.1463 17.5579 20.8859 16.2749 21.3162 14.8769L19.8832 14.4339ZM19.1452 7.87491C19.4602 8.42191 19.7052 8.98791 19.8852 9.56491L21.3172 9.12191C21.1016 8.4258 20.8087 7.75597 20.4442 7.12491L19.1452 7.87491ZM18.0502 6.38891C18.4602 6.83191 18.8282 7.32891 19.1442 7.87491L20.4442 7.12491C20.08 6.49355 19.6453 5.90389 19.1502 5.36891L18.0502 6.38891ZM10.1662 3.95391C11.3729 3.67929 12.6259 3.67997 13.8322 3.95591L14.1672 2.49391C12.7411 2.16743 11.2588 2.16641 9.83223 2.49091L10.1662 3.95391ZM10.7492 5.07191V3.22191H9.24923V5.07191H10.7492ZM7.37523 6.15391L5.77423 5.22991L5.02423 6.52891L6.62423 7.45291L7.37523 6.15391ZM4.62523 13.0829L3.02423 14.0069L3.77423 15.3059L5.37523 14.3819L4.62523 13.0829ZM5.37523 9.61791L3.77523 8.69491L3.02523 9.99491L4.62523 10.9179L5.37523 9.61791ZM10.7502 20.7749V18.9279H9.25023V20.7749H10.7502ZM6.62523 16.5469L5.02423 17.4709L5.77423 18.7709L7.37423 17.8459L6.62523 16.5469ZM18.9762 17.4709L17.3752 16.5469L16.6252 17.8459L18.2252 18.7699L18.9762 17.4709ZM14.7502 20.7769V18.9279H13.2502V20.7779L14.7502 20.7769ZM20.2262 8.69391L18.6252 9.61791L19.3752 10.9179L20.9752 9.99291L20.2262 8.69391ZM20.9742 14.0059L19.3752 13.0819L18.6252 14.3819L20.2252 15.3049L20.9742 14.0059ZM14.7502 5.07191V3.22491H13.2502V5.07191H14.7502ZM18.2262 5.22991L16.6252 6.15391L17.3752 7.45391L18.9762 6.52891L18.2262 5.22991ZM13.2502 5.07191C13.2502 7.18892 15.5422 8.51291 17.3752 7.45391L16.6252 6.15391C16.4352 6.2636 16.2197 6.32136 16.0004 6.32138C15.781 6.32141 15.5655 6.2637 15.3755 6.15405C15.1855 6.0444 15.0276 5.88668 14.9179 5.69673C14.8082 5.50678 14.7503 5.29129 14.7502 5.07191H13.2502ZM18.6252 9.61791C16.7922 10.6769 16.7922 13.3229 18.6252 14.3819L19.3752 13.0819C19.1852 12.9722 19.0274 12.8144 18.9177 12.6244C18.808 12.4344 18.7503 12.2188 18.7503 11.9994C18.7503 11.78 18.808 11.5645 18.9177 11.3744C19.0274 11.1844 19.1852 11.0266 19.3752 10.9169L18.6252 9.61791ZM17.3752 16.5469C15.5422 15.4879 13.2502 16.8109 13.2502 18.9279H14.7502C14.7503 18.7085 14.8082 18.493 14.9179 18.3031C15.0276 18.1132 15.1855 17.9554 15.3755 17.8458C15.5655 17.7361 15.781 17.6784 16.0004 17.6784C16.2197 17.6785 16.4352 17.7362 16.6252 17.8459L17.3752 16.5469ZM10.7502 18.9279C10.7502 16.8109 8.45823 15.4879 6.62523 16.5469L7.37423 17.8459C7.56422 17.7362 7.78072 17.6785 8.0001 17.6784C8.21948 17.6784 8.43499 17.7361 8.625 17.8458C8.81501 17.9554 8.97282 18.1132 9.08257 18.3031C9.19231 18.493 9.25014 18.7085 9.25023 18.9279H10.7502ZM5.37523 14.3819C7.20823 13.3229 7.20823 10.6769 5.37523 9.61791L4.62523 10.9179C4.81524 11.0276 4.97303 11.1854 5.08273 11.3754C5.19243 11.5655 5.25018 11.781 5.25018 12.0004C5.25018 12.2198 5.19243 12.4354 5.08273 12.6254C4.97303 12.8154 4.81524 12.9732 4.62523 13.0829L5.37523 14.3819ZM9.25023 5.07191C9.25014 5.29129 9.19231 5.50678 9.08257 5.69673C8.97282 5.88668 8.81501 6.0444 8.625 6.15405C8.43499 6.2637 8.21948 6.32141 8.0001 6.32138C7.78072 6.32136 7.56522 6.2636 7.37523 6.15391L6.62523 7.45391C8.45823 8.51191 10.7502 7.18892 10.7502 5.07191H9.25023Z" fill="#111812"/>
</svg>
